<svg width="40" height="40" viewBox="0 0 40 40" fill="none" xmlns="http://www.w3.org/2000/svg">
<g clip-path="url(#clip0_2323_52189)">
<g clip-path="url(#clip1_2323_52189)">
<mask id="mask0_2323_52189" style="mask-type:luminance" maskUnits="userSpaceOnUse" x="0" y="7" width="40" height="25">
<path d="M39.9396 7.88672H0V31.1496H39.9396V7.88672Z" fill="white"/>
</mask>
<g mask="url(#mask0_2323_52189)">
<path d="M39.8319 30.2657C39.8198 30.1811 39.8077 30.1086 39.7957 30.024C39.7111 29.5285 39.6144 29.0331 39.4935 28.5376C39.2881 27.6796 39.0222 26.8458 38.708 26.0482C38.4422 25.3594 38.1401 24.6947 37.8017 24.0542C37.3666 23.2325 36.8833 22.4349 36.3395 21.6736C35.6748 20.743 34.9376 19.885 34.1401 19.0754C33.8017 18.737 33.4512 18.4107 33.0887 18.1086C32.3032 17.4319 31.4694 16.8156 30.5872 16.2717C30.5993 16.2597 30.5993 16.2476 30.6114 16.2355C31.0102 15.5346 31.421 14.8458 31.8198 14.1449C32.2186 13.4681 32.6053 12.7914 33.0041 12.1026C33.2821 11.6192 33.5721 11.1237 33.85 10.6403C33.9226 10.5195 33.9709 10.4107 34.0071 10.2778C34.1159 9.93942 34.128 9.57688 34.0313 9.23851C34.0071 9.15392 33.983 9.06933 33.9467 8.99682C33.9105 8.91223 33.8742 8.83972 33.8259 8.76721C33.6809 8.51344 33.4633 8.29592 33.1854 8.13882C32.9437 7.9938 32.6778 7.90921 32.3999 7.88504C32.279 7.87296 32.1703 7.87296 32.0494 7.88504C31.9528 7.89712 31.8561 7.90921 31.7715 7.93338C31.4331 8.01797 31.131 8.19924 30.8893 8.4651C30.8047 8.56178 30.7201 8.67054 30.6597 8.7793C30.3818 9.26268 30.0917 9.75815 29.8138 10.2415L28.6295 12.2838C28.2307 12.9847 27.8198 13.6736 27.421 14.3745C27.3727 14.447 27.3364 14.5316 27.2881 14.6041C27.2277 14.5799 27.1673 14.5557 27.1068 14.5316C24.8833 13.6856 22.4784 13.2264 19.9528 13.2264C19.8802 13.2264 19.8198 13.2264 19.7473 13.2264C17.5117 13.2506 15.3606 13.6373 13.3425 14.3382C13.1129 14.4228 12.8833 14.5074 12.6537 14.592C12.6174 14.5195 12.5691 14.447 12.5328 14.3745C12.134 13.6736 11.7232 12.9847 11.3244 12.2838C10.9256 11.6071 10.5389 10.9304 10.1401 10.2415C9.86213 9.75815 9.57209 9.26268 9.29415 8.7793C9.22164 8.65845 9.14913 8.56178 9.06454 8.4651C8.82285 8.19924 8.50865 8.01797 8.18237 7.93338C8.08569 7.90921 7.98901 7.89712 7.90442 7.88504C7.78358 7.87296 7.67481 7.87296 7.55397 7.88504C7.27602 7.90921 7.01016 7.9938 6.76847 8.13882C6.50261 8.29592 6.28509 8.51344 6.12799 8.76721C6.07965 8.83972 6.04339 8.91223 6.00714 8.99682C5.97089 9.08141 5.94671 9.15392 5.92255 9.23851C5.83795 9.57688 5.83795 9.92733 5.94672 10.2778C5.98297 10.3986 6.04339 10.5195 6.10381 10.6403C6.38176 11.1237 6.67179 11.6192 6.94974 12.1026C7.34853 12.7793 7.73524 13.456 8.13403 14.1449C8.53282 14.8458 8.9437 15.5346 9.34249 16.2355L9.35457 16.2476C8.5449 16.7551 7.77149 17.311 7.03433 17.9273C6.59928 18.2899 6.17632 18.6766 5.77753 19.0754C4.96787 19.873 4.24279 20.743 3.57814 21.6736C3.03433 22.4349 2.55094 23.2204 2.1159 24.0542C1.77753 24.6947 1.47542 25.3594 1.20956 26.0482C0.895356 26.8579 0.629495 27.6917 0.424057 28.5376C0.303211 29.021 0.206534 29.5165 0.121942 30.024C0.109857 30.1086 0.0977743 30.1811 0.0856897 30.2657C0.0373513 30.5557 0.00109753 30.8458 -0.0351562 31.1479H39.9044C39.9044 30.8458 39.8682 30.5557 39.8319 30.2657Z" fill="#34A853"/>
<path d="M30.3578 25.6133C31.1554 25.0816 31.2763 23.8489 30.6116 22.8701C29.959 21.8791 28.7747 21.5166 27.9772 22.0483C27.1796 22.58 27.0587 23.8127 27.7234 24.7915C28.376 25.7825 29.5602 26.145 30.3578 25.6133Z" fill="#202124"/>
<path d="M12.255 24.8032C12.9076 23.8123 12.7988 22.5918 12.0012 22.06C11.2037 21.5283 10.0194 21.8909 9.3668 22.8818C8.71424 23.8727 8.823 25.0933 9.62058 25.625C10.4182 26.1567 11.5904 25.7821 12.255 24.8032Z" fill="#202124"/>
</g>
</g>
</g>
<defs>
<clipPath id="clip0_2323_52189">
<rect width="40" height="40" fill="white"/>
</clipPath>
<clipPath id="clip1_2323_52189">
<rect width="40" height="23.3233" fill="white" transform="translate(0 7.88477)"/>
</clipPath>
</defs>
</svg>
